<?xml version="1.0" encoding="utf-8"?>
<!-- Generator: Adobe Illustrator 23.0.3, SVG Export Plug-In . SVG Version: 6.00 Build 0)  -->
<svg version="1.1" id="Calque_1" xmlns="http://www.w3.org/2000/svg" xmlns:xlink="http://www.w3.org/1999/xlink" x="0px" y="0px"
	 width="348px" height="80.74px" viewBox="0 0 348 80.74" style="enable-background:new 0 0 348 80.74;" xml:space="preserve">
<style type="text/css">
	.st0{fill:#58595B;}
</style>
<g>
	<g>
		<path class="st0" d="M11.1,28.11c-4.75,0-8.08-2.73-8.08-7.1V6.26h2.04v14.43c0,3.42,2.55,5.47,6.13,5.47
			c3.3,0,5.82-1.54,5.82-5.72V6.26h2.04v14.68C19.06,25.62,15.38,28.11,11.1,28.11z"/>
		<path class="st0" d="M43.74,27.89L30.69,9.09v18.8h-2.05V6.26h2.45l13.14,18.9V6.26h2.04v21.63H43.74z"/>
		<path class="st0" d="M56.34,27.89V6.26h2.01v21.63H56.34z"/>
		<path class="st0" d="M76.02,27.89h-1.57L66.21,6.7l1.98-0.63l7.1,18.23l7.26-18.3l1.82,0.63L76.02,27.89z"/>
		<path class="st0" d="M94.26,8.18v7.64h8.61v1.89h-8.61V26h9.31v1.89H92.24V6.26h11.32v1.92H94.26z"/>
		<path class="st0" d="M122.99,28.17l-6.6-10.09h-2.08v9.81h-2.04V6.26h5.28c1.13,0,6.26-0.15,6.26,5.35c0,3.55-2.64,5.69-5.25,6.26
			l6.35,9.4L122.99,28.17z M116.95,8.14h-2.64v8.02h1.76c4.97,0,5.6-2.83,5.6-4.59C121.67,8.43,119.06,8.14,116.95,8.14z"/>
		<path class="st0" d="M137.04,28.07c-1.41,0-3.52-0.15-5.53-2.17l1.26-1.45c1.35,1.35,3.18,1.73,4.11,1.73
			c2.36,0,4.31-1.54,4.31-3.83c0-3.12-2.36-3.97-4.75-5.06c-2.8-1.32-4.59-2.52-4.59-6.04c0-2.92,2.76-5.19,5.78-5.19
			c1.76,0,2.96,0.16,5.25,1.63l-1.13,1.6c-2.14-1.42-2.86-1.32-4.18-1.32c-1.22,0-3.68,0.91-3.68,3.43c0,2.48,1.7,3.3,3.61,4.21
			c3.12,1.44,5.72,2.48,5.72,6.6C143.24,25.5,140.47,28.07,137.04,28.07z"/>
		<path class="st0" d="M152.04,27.89V6.26h2.01v21.63H152.04z"/>
		<path class="st0" d="M170.18,8.18v19.71h-2.04V8.18h-7.01V6.26h15.94v1.92H170.18z"/>
		<path class="st0" d="M186.15,8.18v7.64h8.61v1.89h-8.61V26h9.31v1.89h-11.32V6.26h11.32v1.92H186.15z M188.82,5.32l-0.98-1.01
			L191.97,0l1.45,1.44L188.82,5.32z"/>
	</g>
	<rect x="210.2" y="12.77" class="st0" width="137.8" height="7.56"/>
	<rect y="57.26" class="st0" width="60.57" height="7.57"/>
	<path class="st0" d="M86.71,66.56l-0.22-0.05v-6.29c0.06,0,0.11,0,0.17,0c2.84,0,6.07-2.5,6.07-6.01c0-2.28-0.95-5.73-7.07-5.73
		H74.41v-6.62h11.57c8.45,0,14.41,4.84,14.41,11.85C100.39,63.83,91.49,66.61,86.71,66.56z M74.41,80.13c0-27.26,0-27.21,0-27.21
		h7.57v27.21H74.41z"/>
	<path class="st0" d="M109.45,80.46l-7.57-1.17l13.08-31.44l3.56,8.96L109.45,80.46z M132.76,80.46L128.7,70h-10.35l2.22-6.29h5.73
		l-8.9-21.86h2.61h5.34l15.13,37.66L132.76,80.46z"/>
	<path class="st0" d="M147.67,80.13V41.85h7.57v38.28H147.67z M160.35,65.83h-0.55v-6.57c0.11,0,0.11,0,0.11,0
		c1.56-0.06,6.01-0.72,6.01-5.62c0-3.84-3.89-5.06-5.95-5.06c0,0-0.11,0-0.17,0v-6.73h0.33c7.07,0.17,13.46,3.56,13.46,11.52
		C173.59,64.77,161.97,65.83,160.35,65.83z M168.36,80.74l-6.23-10.57l7.4-1.83l7.12,11.07L168.36,80.74z"/>
	<path class="st0" d="M184.22,80.13V41.85h7.62v38.28H184.22z"/>
	<path class="st0" d="M212.92,80.46c-5.12,0-8.96-0.94-12.74-4.51l4.56-5.34c2.28,1.95,4.89,3.23,7.9,3.23
		c2.61,0,5.56-1.39,5.56-4.4c0-2.28-1.34-3.61-3.23-4.73c0.06,0,3.67-6.01,3.67-6.01c3.78,1.78,7.23,4.56,7.23,10.52
		C225.89,76.18,219.26,80.46,212.92,80.46z M222.04,50.2c-2.78-1.5-4.89-2.06-8.17-2.06c-2.11,0-4.51,1.45-4.51,3.78
		c0,2.62,2.28,3.73,5.12,4.95l-3.67,6.01c-4.28-1.78-8.9-4.12-8.9-11.24c0-6.29,6.4-10.12,12.07-10.12c4.39,0,7.68,0.78,11.46,3
		L222.04,50.2z"/>
	<path class="st0" d="M256.89,48.47v-6.62h24.03v6.62H256.89z M256.89,80.13v-27.1h7.62v27.1H256.89z M268.96,63.83v-6.45h10.74
		v6.45H268.96z M269.02,80.13v-6.62h11.9v6.62H269.02z"/>
	<path class="st0" d="M300.39,80.46c-5.12,0-8.96-0.94-12.74-4.51l4.56-5.34c2.28,1.95,4.9,3.23,7.9,3.23c2.61,0,5.57-1.39,5.57-4.4
		c0-2.28-1.34-3.61-3.23-4.73c0.06,0,3.67-6.01,3.67-6.01c3.78,1.78,7.23,4.56,7.23,10.52C313.36,76.18,306.73,80.46,300.39,80.46z
		 M309.52,50.2c-2.79-1.5-4.9-2.06-8.18-2.06c-2.11,0-4.51,1.45-4.51,3.78c0,2.62,2.28,3.73,5.12,4.95l-3.67,6.01
		c-4.28-1.78-8.9-4.12-8.9-11.24c0-6.29,6.39-10.12,12.07-10.12c4.4,0,7.68,0.78,11.46,3L309.52,50.2z"/>
	<path class="st0" d="M317.92,48.42v-6.56h28.87v6.56H317.92z M328.71,80.13V52.98h7.57v27.15H328.71z"/>
	<rect x="235.3" y="57.18" class="st0" width="10.86" height="6.52"/>
</g>
</svg>
